<?xml version="1.0" encoding="UTF-8"?>
<svg id="_图层_1" data-name="图层 1" xmlns="http://www.w3.org/2000/svg" xmlns:xlink="http://www.w3.org/1999/xlink" viewBox="0 0 534.5 328">
  <defs>
    <style>
      .cls-1 {
        fill: url(#_未命名的渐变_13);
      }

      .cls-1, .cls-2, .cls-3, .cls-4, .cls-5, .cls-6, .cls-7 {
        stroke-width: 0px;
      }

      .cls-2 {
        fill: url(#_未命名的渐变_15);
      }

      .cls-3 {
        fill: url(#_未命名的渐变_15-3);
      }

      .cls-4 {
        fill: url(#_未命名的渐变_15-5);
      }

      .cls-5 {
        fill: url(#_未命名的渐变_15-4);
      }

      .cls-6 {
        fill: url(#_未命名的渐变_15-2);
      }
    </style>
    <linearGradient id="_未命名的渐变_15" data-name="未命名的渐变 15" x1="373.22" y1="136.82" x2="312.2" y2="190.98" gradientUnits="userSpaceOnUse">
      <stop offset="0" stop-color="#fce897"/>
      <stop offset="1" stop-color="#f4bd37"/>
    </linearGradient>
    <linearGradient id="_未命名的渐变_15-2" data-name="未命名的渐变 15" x1="217.5" y1="33.81" x2="171" y2="55.2" xlink:href="#_未命名的渐变_15"/>
    <linearGradient id="_未命名的渐变_15-3" data-name="未命名的渐变 15" x1="205.36" y1="22.18" x2="221.85" y2="22.18" xlink:href="#_未命名的渐变_15"/>
    <linearGradient id="_未命名的渐变_15-4" data-name="未命名的渐变 15" x1="184.48" y1="9.23" x2="197.43" y2="9.23" xlink:href="#_未命名的渐变_15"/>
    <linearGradient id="_未命名的渐变_15-5" data-name="未命名的渐变 15" x1="395.69" y1="-17.51" x2="263.6" y2="99.79" xlink:href="#_未命名的渐变_15"/>
    <linearGradient id="_未命名的渐变_13" data-name="未命名的渐变 13" x1="277.01" y1="85.65" x2="176.1" y2="193.96" gradientUnits="userSpaceOnUse">
      <stop offset="0" stop-color="#000"/>
      <stop offset=".02" stop-color="#010101"/>
      <stop offset="1" stop-color="#3e3a39"/>
    </linearGradient>
  </defs>
  <g>
    <path class="cls-7" d="M7.62,303.16c1.73,0,3.3.16,4.72.47,1.42.31,2.63.91,3.65,1.78,1.01.88,1.8,2.1,2.37,3.66.56,1.57.85,3.6.85,6.09,0,2.33-.28,4.26-.85,5.79-.57,1.53-1.35,2.76-2.37,3.68-1.01.92-2.23,1.57-3.65,1.95-1.42.38-2.99.57-4.72.57H.7v-24h6.92ZM7.55,324.42c1.24,0,2.39-.14,3.42-.43,1.04-.29,1.93-.78,2.68-1.49.75-.7,1.33-1.65,1.73-2.85.4-1.2.6-2.7.6-4.49,0-1.91-.21-3.47-.64-4.68-.43-1.21-1.01-2.16-1.76-2.84-.75-.68-1.64-1.15-2.66-1.4-1.03-.25-2.15-.38-3.37-.38h-3.73v18.57h3.73Z"/>
    <path class="cls-7" d="M27.05,305.06c-.67,0-1.14-.1-1.4-.31-.26-.21-.4-.69-.4-1.45s.13-1.27.4-1.47c.26-.19.73-.29,1.4-.29.62,0,1.07.1,1.35.29.28.2.42.69.42,1.47s-.14,1.25-.42,1.45c-.28.21-.73.31-1.35.31ZM25.52,308.48h2.97v18.67h-2.97v-18.67Z"/>
    <path class="cls-7" d="M39.8,327.36c-.46,0-.95-.02-1.47-.05-.52-.03-1.03-.08-1.54-.12-.51-.05-.97-.11-1.4-.19-.43-.08-.77-.16-1.02-.22v-2.56c.32.09.71.18,1.16.28.45.09.92.17,1.4.24.48.07.97.12,1.47.16.49.03.95.05,1.37.05,1.43,0,2.51-.2,3.23-.6s1.09-1.16,1.09-2.26c0-.55-.05-1.01-.16-1.37-.1-.36-.31-.66-.61-.9s-.72-.45-1.26-.64c-.54-.18-1.26-.38-2.16-.59-1.04-.23-1.89-.5-2.56-.8-.67-.3-1.2-.66-1.59-1.07-.39-.41-.67-.91-.83-1.49-.16-.58-.24-1.26-.24-2.04,0-1.52.56-2.74,1.68-3.66,1.12-.92,2.79-1.38,5.03-1.38.9,0,1.79.06,2.68.17.89.12,1.56.27,2.02.45l-.21,2.52c-.53-.21-1.19-.38-1.97-.52-.78-.14-1.61-.21-2.49-.21-1.31,0-2.3.18-2.96.55-.66.37-.99,1.08-.99,2.14,0,.48.05.88.16,1.17.1.3.28.56.54.78.25.22.61.4,1.07.55.46.15,1.06.31,1.8.47,1.06.25,1.97.52,2.71.81.75.29,1.35.65,1.82,1.07.46.43.8.95,1,1.57.21.62.31,1.38.31,2.28,0,1.87-.61,3.23-1.82,4.1-1.21.86-2.97,1.3-5.27,1.3Z"/>
    <path class="cls-7" d="M60.27,327.5c-1.38,0-2.61-.16-3.68-.47-1.07-.31-1.98-.84-2.71-1.59-.74-.75-1.3-1.74-1.68-2.97-.38-1.23-.57-2.78-.57-4.65s.19-3.42.57-4.65.94-2.22,1.68-2.97,1.64-1.28,2.71-1.59c1.07-.31,2.3-.47,3.68-.47,1.04,0,1.98.07,2.82.21.84.14,1.53.3,2.06.49v2.73c-.69-.25-1.43-.45-2.21-.6-.78-.15-1.66-.23-2.63-.23-1.04,0-1.9.12-2.59.35s-1.26.62-1.69,1.16c-.44.54-.75,1.27-.93,2.18-.18.91-.28,2.06-.28,3.44s.09,2.49.28,3.39c.18.9.5,1.62.93,2.16.44.54,1.01.92,1.71,1.14.7.22,1.57.33,2.61.33.88,0,1.74-.06,2.59-.19.85-.13,1.61-.33,2.28-.6v2.73c-.25.09-.57.18-.95.26s-.8.16-1.24.23c-.45.07-.91.12-1.38.16s-.93.05-1.37.05Z"/>
    <path class="cls-7" d="M78.15,327.5c-1.38,0-2.61-.16-3.68-.47-1.07-.31-1.98-.84-2.71-1.59-.74-.75-1.3-1.74-1.68-2.97-.38-1.23-.57-2.78-.57-4.65s.19-3.42.57-4.65.94-2.22,1.68-2.97,1.64-1.28,2.71-1.59c1.07-.31,2.3-.47,3.68-.47s2.61.16,3.68.47c1.07.31,1.97.84,2.7,1.59s1.28,1.74,1.66,2.97.57,2.78.57,4.65-.19,3.42-.57,4.65c-.38,1.23-.93,2.23-1.66,2.97-.73.75-1.63,1.28-2.7,1.59-1.07.31-2.3.47-3.68.47ZM78.15,324.98c1.06,0,1.94-.12,2.65-.35.7-.23,1.26-.62,1.68-1.17.42-.55.71-1.29.88-2.21s.26-2.06.26-3.42-.09-2.5-.28-3.42c-.18-.92-.49-1.66-.92-2.21-.43-.55-.99-.95-1.69-1.19s-1.56-.36-2.58-.36-1.91.12-2.61.36-1.27.64-1.69,1.19c-.43.55-.73,1.29-.9,2.21-.17.92-.26,2.06-.26,3.42s.09,2.5.28,3.42c.18.92.5,1.66.93,2.21.44.55,1,.95,1.69,1.17.69.23,1.54.35,2.56.35Z"/>
    <path class="cls-7" d="M89.52,308.48h3.01l5.67,15.7h.21l5.46-15.7h3.15l-6.98,18.67h-3.53l-6.98-18.67Z"/>
    <path class="cls-7" d="M125.69,315.95c0,.25-.02.57-.05.95-.03.38-.08.79-.12,1.23l-12.65.8c0,1.01.1,1.9.31,2.65.21.75.54,1.37,1,1.85.46.48,1.07.85,1.83,1.09.76.24,1.71.36,2.83.36,1.04,0,2.09-.12,3.16-.34,1.07-.23,1.97-.52,2.68-.86v2.73c-.28.14-.63.28-1.07.41-.44.14-.93.26-1.49.36-.55.1-1.15.18-1.78.24-.63.06-1.29.09-1.95.09-1.38,0-2.61-.16-3.68-.47-1.07-.31-1.98-.84-2.71-1.59-.74-.75-1.3-1.74-1.68-2.97-.38-1.23-.57-2.78-.57-4.65s.19-3.42.57-4.65.93-2.22,1.66-2.97,1.61-1.28,2.66-1.59c1.05-.31,2.24-.47,3.58-.47,1.59,0,2.87.24,3.85.71.98.47,1.73,1.08,2.26,1.83.53.75.89,1.59,1.07,2.52.18.93.28,1.85.28,2.75ZM122.75,315.99c0-.71-.05-1.4-.14-2.06-.09-.66-.29-1.23-.61-1.73-.31-.49-.77-.89-1.37-1.17-.6-.29-1.41-.43-2.42-.43-1.08,0-1.97.14-2.65.42-.68.28-1.22.68-1.61,1.21-.39.53-.67,1.18-.83,1.94s-.25,1.61-.28,2.56l9.89-.73Z"/>
    <path class="cls-7" d="M140.8,308.14l-.1,2.7h-.42c-.6,0-1.19.06-1.76.17-.58.12-1.12.33-1.63.64-.51.31-.97.73-1.38,1.26-.42.53-.75,1.21-1,2.04v12.2h-2.97v-18.67h2.97v3.39c.3-.78.67-1.42,1.11-1.9.44-.48.92-.86,1.45-1.14.53-.28,1.09-.46,1.68-.55s1.16-.14,1.71-.14h.35Z"/>
    <path class="cls-7" d="M160.71,324.87c.42,0,.78-.02,1.09-.05s.63-.09.95-.16v2.52c-.37.05-.71.09-1.04.12s-.68.05-1.07.05c-1.04,0-1.91-.08-2.61-.23s-1.28-.44-1.73-.88c-.45-.44-.77-1.04-.97-1.81s-.29-1.77-.29-2.99v-10.48h-2.77v-2.49h2.77v-4.43h2.97v4.43h4.63v2.49h-4.63v10.3c0,.74.03,1.34.1,1.8.07.46.2.82.4,1.09.2.27.47.45.81.55.35.1.81.16,1.38.16Z"/>
    <path class="cls-7" d="M176.2,308.14c1.22,0,2.24.15,3.04.45.81.3,1.45.72,1.92,1.26.47.54.81,1.18,1,1.92.2.74.29,1.56.29,2.45v12.93h-2.97v-11.82c0-.71-.05-1.35-.14-1.92-.09-.57-.27-1.04-.54-1.42-.26-.38-.63-.68-1.11-.88-.47-.21-1.08-.31-1.82-.31-.6,0-1.18.04-1.75.12-.57.08-1.09.25-1.59.52-.5.27-.95.64-1.35,1.12-.4.48-.73,1.14-.99,1.97v12.62h-2.97v-26.28h2.97v10.27c.28-.6.64-1.1,1.09-1.49.45-.39.94-.7,1.47-.92.53-.22,1.09-.37,1.68-.47s1.17-.14,1.75-.14Z"/>
    <path class="cls-7" d="M204.14,315.95c0,.25-.02.57-.05.95-.03.38-.08.79-.12,1.23l-12.65.8c0,1.01.1,1.9.31,2.65.21.75.54,1.37,1,1.85.46.48,1.07.85,1.83,1.09.76.24,1.71.36,2.83.36,1.04,0,2.09-.12,3.16-.34,1.07-.23,1.97-.52,2.68-.86v2.73c-.28.14-.63.28-1.07.41-.44.14-.93.26-1.49.36-.55.1-1.15.18-1.78.24-.63.06-1.29.09-1.95.09-1.38,0-2.61-.16-3.68-.47-1.07-.31-1.98-.84-2.71-1.59-.74-.75-1.3-1.74-1.68-2.97-.38-1.23-.57-2.78-.57-4.65s.19-3.42.57-4.65.93-2.22,1.66-2.97,1.61-1.28,2.66-1.59c1.05-.31,2.24-.47,3.58-.47,1.59,0,2.87.24,3.85.71.98.47,1.73,1.08,2.26,1.83.53.75.89,1.59,1.07,2.52.18.93.28,1.85.28,2.75ZM201.2,315.99c0-.71-.05-1.4-.14-2.06-.09-.66-.29-1.23-.61-1.73-.31-.49-.77-.89-1.37-1.17-.6-.29-1.41-.43-2.42-.43-1.08,0-1.97.14-2.65.42-.68.28-1.22.68-1.61,1.21-.39.53-.67,1.18-.83,1.94s-.25,1.61-.28,2.56l9.89-.73Z"/>
    <path class="cls-7" d="M234.46,308.48v18.67h-2.52l-.38-2.7c-.28.62-.63,1.13-1.07,1.52-.44.39-.92.7-1.43.91-.52.22-1.07.38-1.64.47-.58.09-1.15.14-1.73.14-1.22,0-2.24-.15-3.04-.45-.81-.3-1.45-.71-1.92-1.24s-.81-1.17-1-1.92c-.2-.75-.29-1.57-.29-2.47v-12.93h2.97v11.82c0,.71.05,1.36.14,1.92.09.56.27,1.04.54,1.43.26.39.63.69,1.11.9.47.21,1.08.31,1.82.31.58,0,1.14-.04,1.69-.12.55-.08,1.07-.25,1.54-.52s.9-.64,1.28-1.12c.38-.48.71-1.13.99-1.94v-12.69h2.97Z"/>
    <path class="cls-7" d="M250.4,308.14c1.22,0,2.24.15,3.04.45.81.3,1.45.72,1.92,1.26.47.54.81,1.18,1,1.92.2.74.29,1.56.29,2.45v12.93h-3.01v-11.82c0-.71-.05-1.35-.14-1.92-.09-.57-.27-1.04-.54-1.42-.26-.38-.63-.68-1.09-.88-.46-.21-1.06-.31-1.8-.31-.6,0-1.18.04-1.75.12-.57.08-1.09.25-1.59.52-.5.27-.95.64-1.35,1.12-.4.48-.73,1.14-.99,1.97v12.62h-2.97v-18.67h2.97v2.66c.28-.6.64-1.1,1.09-1.49.45-.39.94-.7,1.47-.92.53-.22,1.09-.37,1.68-.47s1.17-.14,1.75-.14Z"/>
    <path class="cls-7" d="M267.82,327.36c-.46,0-.95-.02-1.47-.05-.52-.03-1.03-.08-1.54-.12-.51-.05-.97-.11-1.4-.19-.43-.08-.77-.16-1.02-.22v-2.56c.32.09.71.18,1.16.28.45.09.92.17,1.4.24.48.07.97.12,1.47.16.49.03.95.05,1.37.05,1.43,0,2.51-.2,3.23-.6s1.09-1.16,1.09-2.26c0-.55-.05-1.01-.16-1.37-.1-.36-.31-.66-.61-.9s-.72-.45-1.26-.64c-.54-.18-1.26-.38-2.16-.59-1.04-.23-1.89-.5-2.56-.8-.67-.3-1.2-.66-1.59-1.07-.39-.41-.67-.91-.83-1.49-.16-.58-.24-1.26-.24-2.04,0-1.52.56-2.74,1.68-3.66,1.12-.92,2.79-1.38,5.03-1.38.9,0,1.79.06,2.68.17.89.12,1.56.27,2.02.45l-.21,2.52c-.53-.21-1.19-.38-1.97-.52-.78-.14-1.61-.21-2.49-.21-1.31,0-2.3.18-2.96.55-.66.37-.99,1.08-.99,2.14,0,.48.05.88.16,1.17.1.3.28.56.54.78.25.22.61.4,1.07.55.46.15,1.06.31,1.8.47,1.06.25,1.97.52,2.71.81.75.29,1.35.65,1.82,1.07.46.43.8.95,1,1.57.21.62.31,1.38.31,2.28,0,1.87-.61,3.23-1.82,4.1-1.21.86-2.97,1.3-5.27,1.3Z"/>
    <path class="cls-7" d="M295.59,315.95c0,.25-.02.57-.05.95-.03.38-.08.79-.12,1.23l-12.65.8c0,1.01.1,1.9.31,2.65.21.75.54,1.37,1,1.85.46.48,1.07.85,1.83,1.09.76.24,1.71.36,2.83.36,1.04,0,2.09-.12,3.16-.34,1.07-.23,1.97-.52,2.68-.86v2.73c-.28.14-.63.28-1.07.41-.44.14-.93.26-1.49.36-.55.1-1.15.18-1.78.24-.63.06-1.29.09-1.95.09-1.38,0-2.61-.16-3.68-.47-1.07-.31-1.98-.84-2.71-1.59-.74-.75-1.3-1.74-1.68-2.97-.38-1.23-.57-2.78-.57-4.65s.19-3.42.57-4.65.93-2.22,1.66-2.97,1.61-1.28,2.66-1.59c1.05-.31,2.24-.47,3.58-.47,1.59,0,2.87.24,3.85.71.98.47,1.73,1.08,2.26,1.83.53.75.89,1.59,1.07,2.52.18.93.28,1.85.28,2.75ZM292.65,315.99c0-.71-.05-1.4-.14-2.06-.09-.66-.29-1.23-.61-1.73-.31-.49-.77-.89-1.37-1.17-.6-.29-1.41-.43-2.42-.43-1.08,0-1.97.14-2.65.42-.68.28-1.22.68-1.61,1.21-.39.53-.67,1.18-.83,1.94s-.25,1.61-.28,2.56l9.89-.73Z"/>
    <path class="cls-7" d="M316.26,315.95c0,.25-.02.57-.05.95-.03.38-.08.79-.12,1.23l-12.65.8c0,1.01.1,1.9.31,2.65.21.75.54,1.37,1,1.85.46.48,1.07.85,1.83,1.09.76.24,1.71.36,2.83.36,1.04,0,2.09-.12,3.16-.34,1.07-.23,1.97-.52,2.68-.86v2.73c-.28.14-.63.28-1.07.41-.44.14-.93.26-1.49.36-.55.1-1.15.18-1.78.24-.63.06-1.29.09-1.95.09-1.38,0-2.61-.16-3.68-.47-1.07-.31-1.98-.84-2.71-1.59-.74-.75-1.3-1.74-1.68-2.97-.38-1.23-.57-2.78-.57-4.65s.19-3.42.57-4.65.93-2.22,1.66-2.97,1.61-1.28,2.66-1.59c1.05-.31,2.24-.47,3.58-.47,1.59,0,2.87.24,3.85.71.98.47,1.73,1.08,2.26,1.83.53.75.89,1.59,1.07,2.52.18.93.28,1.85.28,2.75ZM313.32,315.99c0-.71-.05-1.4-.14-2.06-.09-.66-.29-1.23-.61-1.73-.31-.49-.77-.89-1.37-1.17-.6-.29-1.41-.43-2.42-.43-1.08,0-1.97.14-2.65.42-.68.28-1.22.68-1.61,1.21-.39.53-.67,1.18-.83,1.94s-.25,1.61-.28,2.56l9.89-.73Z"/>
    <path class="cls-7" d="M331.06,308.14c1.22,0,2.24.15,3.04.45.81.3,1.45.72,1.92,1.26.47.54.81,1.18,1,1.92.2.74.29,1.56.29,2.45v12.93h-3.01v-11.82c0-.71-.05-1.35-.14-1.92-.09-.57-.27-1.04-.54-1.42-.26-.38-.63-.68-1.09-.88-.46-.21-1.06-.31-1.8-.31-.6,0-1.18.04-1.75.12-.57.08-1.09.25-1.59.52-.5.27-.95.64-1.35,1.12-.4.48-.73,1.14-.99,1.97v12.62h-2.97v-18.67h2.97v2.66c.28-.6.64-1.1,1.09-1.49.45-.39.94-.7,1.47-.92.53-.22,1.09-.37,1.68-.47s1.17-.14,1.75-.14Z"/>
    <path class="cls-7" d="M358.06,327.36c-.46,0-.95-.02-1.47-.05-.52-.03-1.03-.08-1.54-.12-.51-.05-.97-.11-1.4-.19-.43-.08-.77-.16-1.02-.22v-2.56c.32.09.71.18,1.16.28.45.09.92.17,1.4.24.48.07.97.12,1.47.16.49.03.95.05,1.37.05,1.43,0,2.51-.2,3.23-.6s1.09-1.16,1.09-2.26c0-.55-.05-1.01-.16-1.37-.1-.36-.31-.66-.61-.9s-.72-.45-1.26-.64c-.54-.18-1.26-.38-2.16-.59-1.04-.23-1.89-.5-2.56-.8-.67-.3-1.2-.66-1.59-1.07-.39-.41-.67-.91-.83-1.49-.16-.58-.24-1.26-.24-2.04,0-1.52.56-2.74,1.68-3.66s2.79-1.38,5.03-1.38c.9,0,1.79.06,2.68.17.89.12,1.56.27,2.02.45l-.21,2.52c-.53-.21-1.19-.38-1.97-.52-.78-.14-1.61-.21-2.49-.21-1.31,0-2.3.18-2.96.55-.66.37-.99,1.08-.99,2.14,0,.48.05.88.16,1.17.1.3.28.56.54.78.25.22.61.4,1.07.55.46.15,1.06.31,1.8.47,1.06.25,1.97.52,2.71.81.75.29,1.35.65,1.82,1.07.46.43.8.95,1,1.57.21.62.31,1.38.31,2.28,0,1.87-.61,3.23-1.82,4.1-1.21.86-2.97,1.3-5.27,1.3Z"/>
    <path class="cls-7" d="M372.52,305.06c-.67,0-1.14-.1-1.4-.31-.26-.21-.4-.69-.4-1.45s.13-1.27.4-1.47c.26-.19.73-.29,1.4-.29.62,0,1.07.1,1.35.29.28.2.42.69.42,1.47s-.14,1.25-.42,1.45c-.28.21-.73.31-1.35.31ZM370.99,308.48h2.97v18.67h-2.97v-18.67Z"/>
    <path class="cls-7" d="M400.56,308.14c1.08,0,2.01.15,2.78.45.77.3,1.41.72,1.9,1.26.49.54.86,1.19,1.09,1.94.23.75.35,1.57.35,2.47v12.9h-2.97v-11.82c0-1.45-.25-2.57-.74-3.35-.5-.78-1.45-1.18-2.85-1.18-.55,0-1.08.05-1.57.14-.5.09-.95.26-1.37.5-.42.24-.78.58-1.11,1-.32.43-.59.97-.8,1.64v13.07h-2.97v-11.82c0-1.43-.23-2.54-.69-3.34-.46-.8-1.37-1.19-2.73-1.19-.58,0-1.12.04-1.63.12-.51.08-.97.24-1.38.48-.42.24-.78.59-1.11,1.04s-.6,1.03-.83,1.75v12.96h-2.97v-18.67h2.97v2.46c.58-1.11,1.34-1.85,2.28-2.23.95-.38,1.98-.57,3.11-.57,1.47,0,2.65.27,3.53.81s1.51,1.28,1.9,2.23c.28-.6.63-1.1,1.05-1.49.43-.39.9-.7,1.42-.93.52-.23,1.06-.39,1.63-.48.56-.09,1.14-.14,1.71-.14Z"/>
    <path class="cls-7" d="M415.01,305.06c-.67,0-1.14-.1-1.4-.31-.26-.21-.4-.69-.4-1.45s.13-1.27.4-1.47c.26-.19.73-.29,1.4-.29.62,0,1.07.1,1.35.29.28.2.42.69.42,1.47s-.14,1.25-.42,1.45c-.28.21-.73.31-1.35.31ZM413.49,308.48h2.97v18.67h-2.97v-18.67Z"/>
    <path class="cls-7" d="M427.59,327.36c-1.38,0-2.42-.31-3.11-.93s-1.04-1.64-1.04-3.04v-22.51h2.97v21.75c0,.95.14,1.56.42,1.83.28.28.71.41,1.31.41.21,0,.43-.01.67-.03s.49-.07.74-.14v2.46c-.28.07-.57.12-.88.16s-.67.05-1.09.05Z"/>
    <path class="cls-7" d="M441.42,308.14c1.48,0,2.69.14,3.65.43.96.29,1.72.69,2.28,1.19.57.51.96,1.12,1.18,1.83.22.71.33,1.49.33,2.32v13.24h-2.52l-.45-2.83c-.28.51-.65.96-1.11,1.35-.46.39-.99.73-1.57,1-.59.28-1.23.48-1.92.62s-1.38.21-2.08.21c-2.24,0-3.87-.49-4.89-1.45-1.03-.97-1.54-2.34-1.54-4.11,0-1.11.18-2.04.54-2.8s.86-1.37,1.5-1.83c.65-.46,1.42-.8,2.33-1,.91-.21,1.92-.31,3.03-.31h5.7v-1.56c0-.55-.06-1.06-.19-1.54-.13-.47-.36-.87-.69-1.21-.34-.33-.8-.59-1.4-.78-.6-.18-1.37-.28-2.32-.28-.62,0-1.3.03-2.02.1s-1.42.17-2.09.31v-2.63c.69-.09,1.41-.16,2.14-.21s1.44-.07,2.11-.07ZM439.49,325.01c1.57,0,2.9-.32,4.01-.95,1.11-.63,1.9-1.5,2.39-2.61v-3.08h-5.5c-.76,0-1.43.05-2,.14-.58.09-1.05.27-1.42.54-.37.27-.65.63-.83,1.09-.18.46-.28,1.05-.28,1.76,0,1.04.28,1.82.83,2.33.55.52,1.49.78,2.8.78Z"/>
    <path class="cls-7" d="M465.14,308.14l-.1,2.7h-.42c-.6,0-1.19.06-1.76.17-.58.12-1.12.33-1.63.64-.51.31-.97.73-1.38,1.26-.42.53-.75,1.21-1,2.04v12.2h-2.97v-18.67h2.97v3.39c.3-.78.67-1.42,1.11-1.9.44-.48.92-.86,1.45-1.14.53-.28,1.09-.46,1.68-.55s1.16-.14,1.71-.14h.35Z"/>
    <path class="cls-7" d="M471.19,305.06c-.67,0-1.14-.1-1.4-.31-.26-.21-.4-.69-.4-1.45s.13-1.27.4-1.47c.26-.19.73-.29,1.4-.29.62,0,1.07.1,1.35.29.28.2.42.69.42,1.47s-.14,1.25-.42,1.45c-.28.21-.73.31-1.35.31ZM469.67,308.48h2.97v18.67h-2.97v-18.67Z"/>
    <path class="cls-7" d="M485.44,324.87c.42,0,.78-.02,1.09-.05s.63-.09.95-.16v2.52c-.37.05-.71.09-1.04.12s-.68.05-1.07.05c-1.04,0-1.91-.08-2.61-.23s-1.28-.44-1.73-.88c-.45-.44-.77-1.04-.97-1.81s-.29-1.77-.29-2.99v-10.48h-2.77v-2.49h2.77v-4.43h2.97v4.43h4.63v2.49h-4.63v10.3c0,.74.03,1.34.1,1.8.07.46.2.82.4,1.09.2.27.47.45.81.55.35.1.81.16,1.38.16Z"/>
    <path class="cls-7" d="M493.49,305.06c-.67,0-1.14-.1-1.4-.31-.26-.21-.4-.69-.4-1.45s.13-1.27.4-1.47c.26-.19.73-.29,1.4-.29.62,0,1.07.1,1.35.29.28.2.42.69.42,1.47s-.14,1.25-.42,1.45c-.28.21-.73.31-1.35.31ZM491.97,308.48h2.97v18.67h-2.97v-18.67Z"/>
    <path class="cls-7" d="M516.76,315.95c0,.25-.02.57-.05.95-.03.38-.08.79-.12,1.23l-12.65.8c0,1.01.1,1.9.31,2.65.21.75.54,1.37,1,1.85.46.48,1.07.85,1.83,1.09.76.24,1.71.36,2.83.36,1.04,0,2.09-.12,3.16-.34,1.07-.23,1.97-.52,2.68-.86v2.73c-.28.14-.63.28-1.07.41-.44.14-.93.26-1.49.36-.55.1-1.15.18-1.78.24-.63.06-1.29.09-1.95.09-1.38,0-2.61-.16-3.68-.47-1.07-.31-1.98-.84-2.71-1.59-.74-.75-1.3-1.74-1.68-2.97-.38-1.23-.57-2.78-.57-4.65s.19-3.42.57-4.65.93-2.22,1.66-2.97,1.61-1.28,2.66-1.59c1.05-.31,2.24-.47,3.58-.47,1.59,0,2.87.24,3.85.71.98.47,1.73,1.08,2.26,1.83.53.75.89,1.59,1.07,2.52.18.93.28,1.85.28,2.75ZM513.82,315.99c0-.71-.05-1.4-.14-2.06-.09-.66-.29-1.23-.61-1.73-.31-.49-.77-.89-1.37-1.17-.6-.29-1.41-.43-2.42-.43-1.08,0-1.97.14-2.65.42-.68.28-1.22.68-1.61,1.21-.39.53-.67,1.18-.83,1.94s-.25,1.61-.28,2.56l9.89-.73Z"/>
    <path class="cls-7" d="M526.93,327.36c-.46,0-.95-.02-1.47-.05-.52-.03-1.03-.08-1.54-.12-.51-.05-.97-.11-1.4-.19-.43-.08-.77-.16-1.02-.22v-2.56c.32.09.71.18,1.16.28.45.09.92.17,1.4.24.48.07.97.12,1.47.16.49.03.95.05,1.37.05,1.43,0,2.51-.2,3.23-.6s1.09-1.16,1.09-2.26c0-.55-.05-1.01-.16-1.37-.1-.36-.31-.66-.61-.9s-.72-.45-1.26-.64c-.54-.18-1.26-.38-2.16-.59-1.04-.23-1.89-.5-2.56-.8-.67-.3-1.2-.66-1.59-1.07-.39-.41-.67-.91-.83-1.49-.16-.58-.24-1.26-.24-2.04,0-1.52.56-2.74,1.68-3.66,1.12-.92,2.79-1.38,5.03-1.38.9,0,1.79.06,2.68.17.89.12,1.56.27,2.02.45l-.21,2.52c-.53-.21-1.19-.38-1.97-.52-.78-.14-1.61-.21-2.49-.21-1.31,0-2.3.18-2.96.55-.66.37-.99,1.08-.99,2.14,0,.48.05.88.16,1.17.1.3.28.56.54.78.25.22.61.4,1.07.55.46.15,1.06.31,1.8.47,1.06.25,1.97.52,2.71.81.75.29,1.35.65,1.82,1.07.46.43.8.95,1,1.57.21.62.31,1.38.31,2.28,0,1.87-.61,3.23-1.82,4.1-1.21.86-2.97,1.3-5.27,1.3Z"/>
  </g>
  <path class="cls-7" d="M133.11,204.7h15.79l19.55,61.29h.66l20.1-61.29h14.91l-26.72,76.64h-18l-26.28-76.64Z"/>
  <path class="cls-7" d="M232.72,282.5c-2.28,0-4.53-.07-6.74-.22-2.21-.15-4.31-.37-6.29-.66-1.99-.29-3.79-.59-5.41-.88-1.62-.29-2.98-.62-4.09-.99v-12.92c1.18.44,2.61.85,4.31,1.21,1.69.37,3.51.7,5.47.99,1.95.3,3.98.53,6.07.72,2.1.18,4.18.28,6.24.28,5.3,0,9.09-.75,11.37-2.26,2.28-1.51,3.42-4.21,3.42-8.12,0-1.77-.2-3.26-.61-4.47-.41-1.21-1.16-2.28-2.26-3.2-1.1-.92-2.63-1.73-4.58-2.43-1.95-.7-4.51-1.45-7.67-2.26-4.05-.96-7.42-1.99-10.1-3.09-2.69-1.1-4.86-2.48-6.52-4.14s-2.84-3.64-3.53-5.96c-.7-2.32-1.05-5.17-1.05-8.56,0-7.8,2.3-13.42,6.9-16.84,4.6-3.42,11.36-5.13,20.26-5.13,4.12,0,7.91.28,11.37.83,3.46.55,6.18,1.2,8.17,1.93v12.26c-1.03-.37-2.28-.72-3.75-1.05-1.47-.33-3.07-.64-4.8-.94-1.73-.29-3.52-.51-5.36-.66-1.84-.15-3.57-.22-5.19-.22-4.64,0-8.04.63-10.21,1.88-2.17,1.25-3.26,3.79-3.26,7.62,0,1.47.15,2.71.44,3.7.29.99.94,1.88,1.93,2.65.99.77,2.41,1.49,4.25,2.15,1.84.66,4.27,1.36,7.29,2.1,4.49,1.1,8.19,2.28,11.1,3.53,2.91,1.25,5.21,2.8,6.9,4.64,1.69,1.84,2.89,4.05,3.59,6.63.7,2.58,1.05,5.67,1.05,9.28,0,7.51-2.28,13.16-6.85,16.95-4.57,3.79-11.85,5.69-21.87,5.69Z"/>
  <path class="cls-7" d="M398.01,251.78h13.6v27.35c-2.87.88-6.44,1.66-10.71,2.32-4.27.66-8.8.99-13.58.99-5.82,0-11.01-.55-15.57-1.66-4.57-1.1-8.45-3.11-11.65-6.02-3.2-2.91-5.65-6.92-7.34-12.04-1.69-5.12-2.54-11.69-2.54-19.71,0-7.36.86-13.56,2.6-18.61,1.73-5.04,4.23-9.11,7.51-12.2,3.27-3.09,7.25-5.3,11.93-6.63,4.67-1.33,9.96-1.99,15.85-1.99,1.77,0,3.61.07,5.52.22,1.91.15,3.79.33,5.63.55,1.84.22,3.55.5,5.13.83,1.58.33,2.93.72,4.03,1.16v12.81c-2.8-1.03-5.84-1.8-9.11-2.32-3.28-.51-6.68-.77-10.21-.77-3.9,0-7.31.41-10.21,1.21-2.91.81-5.34,2.25-7.29,4.31-1.95,2.06-3.41,4.82-4.36,8.28-.96,3.46-1.44,7.84-1.44,13.14,0,5.6.44,10.16,1.33,13.69.88,3.53,2.24,6.29,4.09,8.28,1.84,1.99,4.18,3.35,7.01,4.09,2.83.74,6.24,1.1,10.21,1.1,1.69,0,3.37-.06,5.02-.17,1.66-.11,3.18-.35,4.58-.72v-12.58l-.02-4.94Z"/>
  <path class="cls-7" d="M317.42,248.49l-10.93-31.25h-1.33l-11.15,31.25-4.31,12.15-3.59,10.01,20.99.04,5.39,10.27h-44.98l28.71-76.64h19.44l28.49,76.64h-15.35l-7.07-20.32-4.31-12.15Z"/>
  <rect class="cls-2" x="321.05" y="155.03" width="29.77" height="29.77"/>
  <circle class="cls-6" cx="193.21" cy="44.98" r="12.79"/>
  <circle class="cls-3" cx="213.6" cy="22.18" r="8.25"/>
  <circle class="cls-5" cx="190.95" cy="9.23" r="6.48"/>
  <path class="cls-4" d="M350.82,138.73h-46.79v-61.4c0-8.38-6.76-15.2-15.14-15.28l-61.36-.55V15.44h96.73c14.67,0,26.57,11.9,26.57,26.57v96.73Z"/>
  <path class="cls-1" d="M180.42,61.51h46.79v61.4c0,8.38,6.76,15.2,15.14,15.28l61.36.55v46.07h-96.73c-14.67,0-26.57-11.9-26.57-26.57V61.51Z"/>
</svg>